{
    "asset" : {
        "generator" : "Khronos glTF Blender I/O v3.4.50",
        "version" : "2.0"
    },
    "scene" : 0,
    "scenes" : [
        {
            "name" : "Scene",
            "nodes" : [
                4
            ]
        }
    ],
    "nodes" : [
        {
            "mesh" : 0,
            "name" : "Arrow_Material.001_0"
        },
        {
            "children" : [
                0
            ],
            "name" : "Arrow",
            "rotation" : [
                -0.70710688829422,
                0,
                0,
                0.7071066498756409
            ],
            "scale" : [
                99.99999237060547,
                99.99999237060547,
                99.99999237060547
            ],
            "translation" : [
                11.482989311218262,
                8.66330623626709,
                11.398099899291992
            ]
        },
        {
            "children" : [
                1
            ],
            "name" : "RootNode"
        },
        {
            "children" : [
                2
            ],
            "name" : "54b2761560d74cf7a540d3659ba46cd1.fbx",
            "rotation" : [
                0.70710688829422,
                0,
                0,
                0.7071066498756409
            ],
            "scale" : [
                0.010000000707805157,
                0.010000000707805157,
                0.010000001639127731
            ]
        },
        {
            "children" : [
                3
            ],
            "name" : "Sketchfab_model",
            "rotation" : [
                -0.7070866823196411,
                -0.005330828484147787,
                -0.005330828484147787,
                0.7070866823196411
            ]
        }
    ],
    "materials" : [
        {
            "doubleSided" : true,
            "name" : "Material.001",
            "pbrMetallicRoughness" : {
                "baseColorFactor" : [
                    0.9309815764427185,
                    0.38751059770584106,
                    0,
                    1
                ],
                "metallicFactor" : 0,
                "roughnessFactor" : 0.8878588080406189
            }
        }
    ],
    "meshes" : [
        {
            "name" : "Arrow_Material.001_0",
            "primitives" : [
                {
                    "attributes" : {
                        "POSITION" : 0,
                        "TEXCOORD_0" : 1,
                        "NORMAL" : 2
                    },
                    "indices" : 3,
                    "material" : 0
                }
            ]
        }
    ],
    "accessors" : [
        {
            "bufferView" : 0,
            "componentType" : 5126,
            "count" : 354,
            "max" : [
                1.7524282932281494,
                1.0534647703170776,
                0.11685825884342194
            ],
            "min" : [
                -1.2560596466064453,
                -1.0552071332931519,
                -0.11744827032089233
            ],
            "type" : "VEC3"
        },
        {
            "bufferView" : 1,
            "componentType" : 5126,
            "count" : 354,
            "type" : "VEC2"
        },
        {
            "bufferView" : 2,
            "componentType" : 5126,
            "count" : 354,
            "type" : "VEC3"
        },
        {
            "bufferView" : 3,
            "componentType" : 5123,
            "count" : 2016,
            "type" : "SCALAR"
        }
    ],
    "bufferViews" : [
        {
            "buffer" : 0,
            "byteLength" : 4248,
            "byteOffset" : 0,
            "target" : 34962
        },
        {
            "buffer" : 0,
            "byteLength" : 2832,
            "byteOffset" : 4248,
            "target" : 34962
        },
        {
            "buffer" : 0,
            "byteLength" : 4248,
            "byteOffset" : 7080,
            "target" : 34962
        },
        {
            "buffer" : 0,
            "byteLength" : 4032,
            "byteOffset" : 11328,
            "target" : 34963
        }
    ],
    "buffers" : [
        {
            "byteLength" : 15360,
            "uri" : "data:application/octet-stream;base64,"
        }
    ]
}
