{
  "accessors": [
    {
      "bufferView": 2,
      "componentType": 5126,
      "count": 16896,
      "max": [
        0.025025643408298492,
        0.49254825711250305,
        0.49254825711250305
      ],
      "min": [
        -3.718636065741521e-08,
        -0.49254825711250305,
        -0.49254825711250305
      ],
      "type": "VEC3"
    },
    {
      "bufferView": 2,
      "byteOffset": 202752,
      "componentType": 5126,
      "count": 16896,
      "max": [
        1.0,
        1.0,
        1.0
      ],
      "min": [
        -1.0,
        -1.0,
        -1.0
      ],
      "type": "VEC3"
    },
    {
      "bufferView": 1,
      "componentType": 5126,
      "count": 16896,
      "max": [
        0.0,
        0.0
      ],
      "min": [
        0.0,
        0.0
      ],
      "type": "VEC2"
    },
    {
      "bufferView": 0,
      "componentType": 5125,
      "count": 98304,
      "type": "SCALAR"
    },
    {
      "bufferView": 2,
      "byteOffset": 405504,
      "componentType": 5126,
      "count": 16896,
      "max": [
        0.022201674059033394,
        0.4369676113128662,
        0.4369676113128662
      ],
      "min": [
        -3.2990136844546214e-08,
        -0.4369676113128662,
        -0.4369676113128662
      ],
      "type": "VEC3"
    },
    {
      "bufferView": 2,
      "byteOffset": 608256,
      "componentType": 5126,
      "count": 16896,
      "max": [
        1.0,
        1.0,
        1.0
      ],
      "min": [
        -1.0,
        -1.0,
        -1.0
      ],
      "type": "VEC3"
    },
    {
      "bufferView": 1,
      "byteOffset": 135168,
      "componentType": 5126,
      "count": 16896,
      "max": [
        0.0,
        0.0
      ],
      "min": [
        0.0,
        0.0
      ],
      "type": "VEC2"
    },
    {
      "bufferView": 0,
      "byteOffset": 393216,
      "componentType": 5125,
      "count": 98304,
      "type": "SCALAR"
    },
    {
      "bufferView": 2,
      "byteOffset": 811008,
      "componentType": 5126,
      "count": 15864,
      "max": [
        0.21876123547554016,
        0.9832117557525635,
        0.9832116961479187
      ],
      "min": [
        -0.21904097497463226,
        -0.9832116961479187,
        -0.9832116961479187
      ],
      "type": "VEC3"
    },
    {
      "bufferView": 2,
      "byteOffset": 1001376,
      "componentType": 5126,
      "count": 15864,
      "max": [
        0.9999781250953674,
        0.9999982118606567,
        0.9999982118606567
      ],
      "min": [
        -1.0,
        -0.999998152256012,
        -0.999998152256012
      ],
      "type": "VEC3"
    },
    {
      "bufferView": 1,
      "byteOffset": 270336,
      "componentType": 5126,
      "count": 15864,
      "max": [
        1.0000001192092896,
        1.0000001192092896
      ],
      "min": [
        -1.564622067462551e-07,
        0.010049408301711082
      ],
      "type": "VEC2"
    },
    {
      "bufferView": 0,
      "byteOffset": 786432,
      "componentType": 5125,
      "count": 82560,
      "type": "SCALAR"
    },
    {
      "bufferView": 2,
      "byteOffset": 1191744,
      "componentType": 5126,
      "count": 17981,
      "max": [
        0.09958109259605408,
        0.03454609215259552,
        0.034546077251434326
      ],
      "min": [
        0.031199052929878235,
        -0.034546058624982834,
        -0.03454605117440224
      ],
      "type": "VEC3"
    },
    {
      "bufferView": 2,
      "byteOffset": 1407516,
      "componentType": 5126,
      "count": 17981,
      "max": [
        1.0,
        0.9999999403953552,
        0.9999999403953552
      ],
      "min": [
        -0.9999621510505676,
        -0.9999999403953552,
        -0.9999999403953552
      ],
      "type": "VEC3"
    },
    {
      "bufferView": 1,
      "byteOffset": 397248,
      "componentType": 5126,
      "count": 17981,
      "max": [
        0.29890361428260803,
        0.29890361428260803
      ],
      "min": [
        0.20109643042087555,
        0.20109640061855316
      ],
      "type": "VEC2"
    },
    {
      "bufferView": 0,
      "byteOffset": 1116672,
      "componentType": 5125,
      "count": 97920,
      "type": "SCALAR"
    },
    {
      "bufferView": 2,
      "byteOffset": 1623288,
      "componentType": 5126,
      "count": 4295,
      "max": [
        0.033237989991903305,
        0.8575037121772766,
        0.8575036525726318
      ],
      "min": [
        0.030265089124441147,
        -0.8575036525726318,
        -0.8575036525726318
      ],
      "type": "VEC3"
    },
    {
      "bufferView": 2,
      "byteOffset": 1674828,
      "componentType": 5126,
      "count": 4295,
      "max": [
        1.0,
        0.6485772728919983,
        0.6485901474952698
      ],
      "min": [
        0.7611280679702759,
        -0.6485595107078552,
        -0.6485924124717712
      ],
      "type": "VEC3"
    },
    {
      "bufferView": 1,
      "byteOffset": 541096,
      "componentType": 5126,
      "count": 4295,
      "max": [
        0.4562760889530182,
        0.4562760591506958
      ],
      "min": [
        0.04372396692633629,
        0.04372395947575569
      ],
      "type": "VEC2"
    },
    {
      "bufferView": 0,
      "byteOffset": 1508352,
      "componentType": 5125,
      "count": 23040,
      "type": "SCALAR"
    },
    {
      "bufferView": 2,
      "byteOffset": 1726368,
      "componentType": 5126,
      "count": 12,
      "max": [
        0.007232784293591976,
        0.09687232971191406,
        0.7036507725715637
      ],
      "min": [
        -0.007232784293591976,
        -0.09687232971191406,
        0.0
      ],
      "type": "VEC3"
    },
    {
      "bufferView": 2,
      "byteOffset": 1726512,
      "componentType": 5126,
      "count": 12,
      "max": [
        0.997171938419342,
        0.07445190101861954,
        0.010249870829284191
      ],
      "min": [
        -0.997171938419342,
        -0.07445190101861954,
        0.010249870829284191
      ],
      "type": "VEC3"
    },
    {
      "bufferView": 1,
      "byteOffset": 575456,
      "componentType": 5126,
      "count": 12,
      "max": [
        0.0,
        0.0
      ],
      "min": [
        0.0,
        0.0
      ],
      "type": "VEC2"
    },
    {
      "bufferView": 0,
      "byteOffset": 1600512,
      "componentType": 5125,
      "count": 12,
      "type": "SCALAR"
    },
    {
      "bufferView": 2,
      "byteOffset": 1726656,
      "componentType": 5126,
      "count": 12,
      "max": [
        0.007232784293591976,
        0.09687232971191406,
        0.0
      ],
      "min": [
        -0.007232784293591976,
        -0.09687232971191406,
        -0.7036507725715637
      ],
      "type": "VEC3"
    },
    {
      "bufferView": 2,
      "byteOffset": 1726800,
      "componentType": 5126,
      "count": 12,
      "max": [
        0.997171938419342,
        0.07445190101861954,
        -0.010249870829284191
      ],
      "min": [
        -0.997171938419342,
        -0.07445190101861954,
        -0.010249870829284191
      ],
      "type": "VEC3"
    },
    {
      "bufferView": 1,
      "byteOffset": 575552,
      "componentType": 5126,
      "count": 12,
      "max": [
        0.0,
        0.0
      ],
      "min": [
        0.0,
        0.0
      ],
      "type": "VEC2"
    },
    {
      "bufferView": 0,
      "byteOffset": 1600560,
      "componentType": 5125,
      "count": 12,
      "type": "SCALAR"
    },
    {
      "bufferView": 2,
      "byteOffset": 1726944,
      "componentType": 5126,
      "count": 1288,
      "max": [
        0.01319567859172821,
        0.8872966170310974,
        0.7562571167945862
      ],
      "min": [
        -0.013195673935115337,
        -0.7465803027153015,
        -0.9016558527946472
      ],
      "type": "VEC3"
    },
    {
      "bufferView": 2,
      "byteOffset": 1742400,
      "componentType": 5126,
      "count": 1288,
      "max": [
        1.0,
        1.0,
        1.0
      ],
      "min": [
        -1.0,
        -1.0,
        -1.0
      ],
      "type": "VEC3"
    },
    {
      "bufferView": 1,
      "byteOffset": 575648,
      "componentType": 5126,
      "count": 1288,
      "max": [
        1.0,
        1.0
      ],
      "min": [
        0.0,
        0.0
      ],
      "type": "VEC2"
    },
    {
      "bufferView": 0,
      "byteOffset": 1600608,
      "componentType": 5125,
      "count": 1836,
      "type": "SCALAR"
    },
    {
      "bufferView": 2,
      "byteOffset": 1757856,
      "componentType": 5126,
      "count": 160,
      "max": [
        0.019778678193688393,
        0.41597026586532593,
        0.41597026586532593
      ],
      "min": [
        -0.002875417936593294,
        -0.41597026586532593,
        -0.41597026586532593
      ],
      "type": "VEC3"
    },
    {
      "bufferView": 2,
      "byteOffset": 1759776,
      "componentType": 5126,
      "count": 160,
      "max": [
        0.9974114894866943,
        0.9653199315071106,
        0.9650766253471375
      ],
      "min": [
        -0.9974064826965332,
        -0.9653199315071106,
        -0.9650766253471375
      ],
      "type": "VEC3"
    },
    {
      "bufferView": 1,
      "byteOffset": 585952,
      "componentType": 5126,
      "count": 160,
      "max": [
        0.0,
        0.0
      ],
      "min": [
        0.0,
        0.0
      ],
      "type": "VEC2"
    },
    {
      "bufferView": 0,
      "byteOffset": 1607952,
      "componentType": 5125,
      "count": 192,
      "type": "SCALAR"
    }
  ],
  "asset": {
    "extras": {
      "author": "AyoubBani (https://sketchfab.com/AyoubBani)",
      "license": "CC-BY-4.0 (http://creativecommons.org/licenses/by/4.0/)",
      "source": "https://sketchfab.com/3d-models/compass-cdd32ea3d698442db9bc1a6ba6cff26b",
      "title": "Compass"
    },
    "generator": "Sketchfab-12.97.0",
    "version": "2.0"
  },
  "bufferViews": [
    {
      "buffer": 0,
      "byteLength": 1608720,
      "name": "floatBufferViews",
      "target": 34963
    },
    {
      "buffer": 0,
      "byteLength": 587232,
      "byteOffset": 1608720,
      "byteStride": 8,
      "name": "floatBufferViews",
      "target": 34962
    },
    {
      "buffer": 0,
      "byteLength": 1761696,
      "byteOffset": 2195952,
      "byteStride": 12,
      "name": "floatBufferViews",
      "target": 34962
    }
  ],
  "buffers": [
    {
      "byteLength": 3957648,
      "uri": "scene.bin"
    }
  ],
  "materials": [
    {
      "doubleSided": true,
      "name": "gray",
      "pbrMetallicRoughness": {
        "baseColorFactor": [
          0.297126,
          0.297126,
          0.297126,
          1.0
        ],
        "metallicFactor": 0.0,
        "roughnessFactor": 0.5
      }
    },
    {
      "doubleSided": true,
      "name": "Dark_blue",
      "pbrMetallicRoughness": {
        "baseColorFactor": [
          0.0022351,
          0.00561719,
          0.0283126,
          1.0
        ],
        "metallicFactor": 0.0,
        "roughnessFactor": 0.5
      }
    },
    {
      "doubleSided": true,
      "name": "Gold",
      "pbrMetallicRoughness": {
        "baseColorFactor": [
          1.0,
          0.6950349999999998,
          0.5053319999999999,
          1.0
        ],
        "roughnessFactor": 0.35
      }
    },
    {
      "doubleSided": true,
      "name": "White",
      "pbrMetallicRoughness": {
        "metallicFactor": 0.0,
        "roughnessFactor": 0.5
      }
    },
    {
      "doubleSided": true,
      "name": "material",
      "pbrMetallicRoughness": {
        "baseColorFactor": [
          0.7999999999999999,
          0.06992910000000006,
          0.06992910000000006,
          1.0
        ],
        "metallicFactor": 0.0,
        "roughnessFactor": 0.5
      }
    },
    {
      "doubleSided": true,
      "name": "Black",
      "pbrMetallicRoughness": {
        "baseColorFactor": [
          0.0184054,
          0.0184054,
          0.0184054,
          1.0
        ],
        "metallicFactor": 0.0,
        "roughnessFactor": 0.5
      }
    }
  ],
  "meshes": [
    {
      "name": "Circle_gray_0",
      "primitives": [
        {
          "attributes": {
            "NORMAL": 1,
            "POSITION": 0,
            "TEXCOORD_0": 2
          },
          "indices": 3,
          "material": 0,
          "mode": 4
        }
      ]
    },
    {
      "name": "Circle.001_gray_0",
      "primitives": [
        {
          "attributes": {
            "NORMAL": 5,
            "POSITION": 4,
            "TEXCOORD_0": 6
          },
          "indices": 7,
          "material": 0,
          "mode": 4
        }
      ]
    },
    {
      "name": "Cylinder_Dark blue_0",
      "primitives": [
        {
          "attributes": {
            "NORMAL": 9,
            "POSITION": 8,
            "TEXCOORD_0": 10
          },
          "indices": 11,
          "material": 1,
          "mode": 4
        }
      ]
    },
    {
      "name": "Cylinder_Gold_0",
      "primitives": [
        {
          "attributes": {
            "NORMAL": 13,
            "POSITION": 12,
            "TEXCOORD_0": 14
          },
          "indices": 15,
          "material": 2,
          "mode": 4
        }
      ]
    },
    {
      "name": "Cylinder_White_0",
      "primitives": [
        {
          "attributes": {
            "NORMAL": 17,
            "POSITION": 16,
            "TEXCOORD_0": 18
          },
          "indices": 19,
          "material": 3,
          "mode": 4
        }
      ]
    },
    {
      "name": "Cylinder.001_Red_0",
      "primitives": [
        {
          "attributes": {
            "NORMAL": 21,
            "POSITION": 20,
            "TEXCOORD_0": 22
          },
          "indices": 23,
          "material": 4,
          "mode": 4
        }
      ]
    },
    {
      "name": "Cylinder.001_Black_0",
      "primitives": [
        {
          "attributes": {
            "NORMAL": 25,
            "POSITION": 24,
            "TEXCOORD_0": 26
          },
          "indices": 27,
          "material": 5,
          "mode": 4
        }
      ]
    },
    {
      "name": "Text.001_gray_0",
      "primitives": [
        {
          "attributes": {
            "NORMAL": 29,
            "POSITION": 28,
            "TEXCOORD_0": 30
          },
          "indices": 31,
          "material": 0,
          "mode": 4
        }
      ]
    },
    {
      "name": "Cylinder.003_gray_0",
      "primitives": [
        {
          "attributes": {
            "NORMAL": 33,
            "POSITION": 32,
            "TEXCOORD_0": 34
          },
          "indices": 35,
          "material": 0,
          "mode": 4
        }
      ]
    }
  ],
  "nodes": [
    {
      "children": [
        1
      ],
      "matrix": [
        1.0,
        0.0,
        0.0,
        0.0,
        0.0,
        2.220446049250313e-16,
        -1.0,
        0.0,
        0.0,
        1.0,
        2.220446049250313e-16,
        0.0,
        0.0,
        0.0,
        0.0,
        1.0
      ],
      "name": "Sketchfab_model"
    },
    {
      "children": [
        2
      ],
      "matrix": [
        0.009999999776482582,
        0.0,
        0.0,
        0.0,
        0.0,
        0.0,
        0.009999999776482582,
        0.0,
        0.0,
        -0.009999999776482582,
        0.0,
        0.0,
        0.0,
        0.0,
        0.0,
        1.0
      ],
      "name": "fb6bf2bc64ee4138b78deea343401618.fbx"
    },
    {
      "children": [
        3,
        5,
        7,
        11,
        14,
        16
      ],
      "name": "RootNode"
    },
    {
      "children": [
        4
      ],
      "matrix": [
        100.0,
        0.0,
        0.0,
        0.0,
        0.0,
        -1.629206793918314e-05,
        -99.99999999999868,
        0.0,
        0.0,
        99.99999999999868,
        -1.629206793918314e-05,
        0.0,
        3.59724760055542,
        0.0,
        0.0,
        1.0
      ],
      "name": "Circle"
    },
    {
      "mesh": 0,
      "name": "Circle_gray_0"
    },
    {
      "children": [
        6
      ],
      "matrix": [
        100.0,
        0.0,
        0.0,
        0.0,
        0.0,
        -1.629206793918314e-05,
        -99.99999999999868,
        0.0,
        0.0,
        99.99999999999868,
        -1.629206793918314e-05,
        0.0,
        3.59724760055542,
        0.0,
        0.0,
        1.0
      ],
      "name": "Circle.001"
    },
    {
      "mesh": 1,
      "name": "Circle.001_gray_0"
    },
    {
      "children": [
        8,
        9,
        10
      ],
      "matrix": [
        100.0,
        0.0,
        0.0,
        0.0,
        0.0,
        -1.629206793918314e-05,
        -99.99999999999868,
        0.0,
        0.0,
        99.99999999999868,
        -1.629206793918314e-05,
        0.0,
        0.0,
        0.0,
        0.0,
        1.0
      ],
      "name": "Cylinder"
    },
    {
      "mesh": 2,
      "name": "Cylinder_Dark blue_0"
    },
    {
      "mesh": 3,
      "name": "Cylinder_Gold_0"
    },
    {
      "mesh": 4,
      "name": "Cylinder_White_0"
    },
    {
      "children": [
        12,
        13
      ],
      "matrix": [
        100.0,
        0.0,
        0.0,
        0.0,
        0.0,
        -1.629206793918314e-05,
        -99.99999999999868,
        0.0,
        0.0,
        99.99999999999868,
        -1.629206793918314e-05,
        0.0,
        7.776895046234131,
        0.0,
        0.0,
        1.0
      ],
      "name": "Cylinder.001"
    },
    {
      "mesh": 5,
      "name": "Cylinder.001_Red_0"
    },
    {
      "mesh": 6,
      "name": "Cylinder.001_Black_0"
    },
    {
      "children": [
        15
      ],
      "matrix": [
        100.0,
        0.0,
        0.0,
        0.0,
        0.0,
        -1.629206793918314e-05,
        -99.99999999999868,
        0.0,
        0.0,
        99.99999999999868,
        -1.629206793918314e-05,
        0.0,
        3.032524824142456,
        7.195705413818359,
        7.879332542419434,
        1.0
      ],
      "name": "Text.001"
    },
    {
      "mesh": 7,
      "name": "Text.001_gray_0"
    },
    {
      "children": [
        17
      ],
      "matrix": [
        100.0,
        0.0,
        0.0,
        0.0,
        0.0,
        -1.629206793918314e-05,
        -99.99999999999868,
        0.0,
        0.0,
        99.99999999999868,
        -1.629206793918314e-05,
        0.0,
        3.9490039348602295,
        0.0,
        0.0,
        1.0
      ],
      "name": "Cylinder.003"
    },
    {
      "mesh": 8,
      "name": "Cylinder.003_gray_0"
    }
  ],
  "scene": 0,
  "scenes": [
    {
      "name": "Sketchfab_Scene",
      "nodes": [
        0
      ]
    }
  ]
}
